<?xml version="1.0" standalone="no"?>
<!DOCTYPE svg PUBLIC "-//W3C//DTD SVG 20010904//EN"
 "http://www.w3.org/TR/2001/REC-SVG-20010904/DTD/svg10.dtd">
<svg version="1.0" xmlns="http://www.w3.org/2000/svg"
 width="512.000000pt" height="512.000000pt" viewBox="0 0 512.000000 512.000000"
 preserveAspectRatio="xMidYMid meet">
<metadata>
Created by potrace 1.11, written by Peter Selinger 2001-2013
</metadata>
<g transform="translate(0.000000,512.000000) scale(0.100000,-0.100000)"
fill="#000000" stroke="none">
<path d="M173 3853 c12 -21 29 -47 39 -57 10 -11 18 -28 18 -38 0 -11 4 -17 9
-14 4 3 16 -12 26 -34 10 -22 22 -40 27 -40 4 0 8 -7 8 -15 0 -8 6 -15 13 -15
8 0 7 -4 -3 -10 -13 -8 -12 -10 3 -10 9 0 17 -7 17 -15 0 -8 5 -15 10 -15 6 0
10 -9 10 -21 0 -11 4 -18 8 -15 5 3 19 -13 31 -34 18 -32 20 -44 11 -62 -11
-22 -10 -22 4 -4 9 11 17 18 19 15 33 -47 56 -92 52 -100 -4 -5 -2 -8 3 -7 6
2 10 -1 10 -7 1 -5 -7 -9 -16 -7 -14 2 -15 1 -2 -7 8 -5 18 -7 23 -4 4 3 14
-3 22 -13 10 -14 11 -22 2 -33 -9 -10 -7 -16 7 -26 9 -7 17 -17 16 -21 -1 -5
4 -10 12 -12 9 -2 8 0 -2 7 -8 6 -10 11 -5 11 6 0 1 7 -9 15 -11 8 -16 18 -12
22 7 8 35 -23 57 -64 10 -18 8 -27 -11 -55 l-22 -33 24 28 c26 30 38 34 38 13
0 -8 14 -28 30 -46 17 -18 30 -41 30 -52 0 -10 4 -17 8 -14 13 8 36 -40 27
-54 -6 -9 -10 -9 -16 1 -5 8 -9 10 -9 4 0 -5 4 -16 9 -23 7 -11 9 -11 14 2 4
9 11 16 16 16 10 0 27 -42 20 -48 -2 -2 4 -8 14 -13 9 -6 17 -15 17 -20 0 -6
7 -17 15 -26 9 -8 13 -23 10 -33 -3 -10 -1 -21 4 -25 7 -4 8 1 4 12 -6 17 -5
17 15 -1 22 -19 30 -32 14 -22 -5 3 -9 -1 -9 -8 0 -8 6 -12 13 -9 18 7 40 -37
23 -47 -16 -11 -41 -1 -32 13 3 6 1 7 -5 3 -6 -4 -9 -13 -6 -21 6 -14 21 -13
59 1 11 4 17 3 12 -1 -4 -5 0 -17 10 -27 9 -10 12 -18 8 -18 -5 0 0 -7 11 -15
19 -14 19 -14 -1 -15 -16 -1 -14 -4 8 -12 15 -5 25 -13 22 -18 -3 -4 2 -10 10
-14 9 -3 12 -12 8 -22 -4 -12 -3 -15 6 -10 8 5 14 1 18 -13 3 -12 10 -21 17
-21 6 0 5 -4 -3 -9 -11 -7 -9 -10 7 -15 11 -4 23 -13 26 -21 3 -10 0 -12 -11
-8 -11 4 -14 2 -9 -5 4 -7 14 -12 23 -12 9 0 13 -6 10 -14 -4 -11 -1 -13 10
-9 10 4 14 2 9 -5 -3 -6 -1 -14 6 -19 15 -9 32 -35 51 -76 7 -15 17 -24 22
-20 4 5 5 2 1 -5 -4 -7 -1 -15 8 -18 9 -3 16 -14 16 -23 0 -9 11 -29 25 -45
14 -16 25 -32 25 -36 0 -4 11 -20 25 -36 28 -32 30 -45 13 -62 -9 -9 -7 -13 6
-18 9 -4 20 -4 23 0 4 3 -1 6 -11 6 -9 0 -14 5 -11 10 10 17 21 11 33 -16 9
-19 9 -24 1 -18 -8 4 -9 3 -5 -4 4 -7 14 -12 22 -12 8 0 14 -4 14 -10 0 -5 -6
-10 -14 -10 -20 0 -27 -13 -14 -30 8 -13 9 -12 5 2 -6 17 29 33 39 17 3 -5 0
-9 -5 -9 -6 0 -11 -8 -11 -17 0 -15 2 -16 10 -3 8 13 11 13 22 1 10 -10 10
-12 1 -7 -7 4 -13 2 -13 -3 0 -6 7 -11 15 -11 9 0 12 -6 8 -17 -4 -10 -2 -14
5 -9 6 3 14 1 18 -5 5 -8 2 -10 -7 -5 -8 4 -6 1 4 -7 9 -8 17 -19 17 -25 0 -5
7 -12 15 -16 8 -3 12 -12 9 -21 -4 -10 0 -15 10 -15 14 0 21 -17 17 -42 0 -4
7 -4 16 -1 10 4 14 2 9 -5 -3 -6 -2 -13 3 -17 6 -3 7 -13 4 -22 -4 -9 -2 -14
3 -11 11 6 45 -28 37 -36 -4 -3 -13 0 -22 7 -14 10 -14 10 -4 -4 7 -9 10 -19
6 -22 -3 -4 -1 -7 4 -7 6 0 13 6 16 13 2 6 8 9 12 5 4 -4 2 -14 -4 -22 -14
-17 -5 -40 11 -30 8 5 9 1 4 -12 -4 -10 -4 -15 0 -11 4 4 13 -1 21 -11 10 -12
9 -7 -2 16 -9 19 -20 30 -27 26 -6 -4 -9 -1 -7 5 8 24 21 16 46 -29 14 -25 29
-47 34 -48 5 -2 7 -8 3 -13 -3 -5 -1 -9 5 -9 6 0 7 -7 4 -17 -5 -12 -3 -14 7
-8 10 6 12 4 7 -8 -4 -11 -2 -14 9 -10 9 3 14 -2 14 -16 0 -12 5 -21 12 -21 6
0 9 -3 6 -6 -3 -3 5 -17 18 -31 23 -25 24 -27 7 -47 -10 -12 -11 -15 -3 -8 17
14 34 16 25 2 -3 -5 1 -10 9 -10 10 0 13 -6 9 -17 -5 -12 -3 -14 7 -8 10 6 12
4 7 -8 -4 -11 -2 -14 9 -10 7 3 14 0 14 -6 0 -6 -4 -11 -10 -11 -5 0 -10 -5
-10 -11 0 -6 9 -8 22 -3 19 6 21 4 12 -7 -6 -8 -11 -25 -12 -39 -1 -18 1 -21
8 -11 4 8 6 21 3 30 -3 11 0 9 11 -4 8 -11 20 -25 26 -32 5 -7 10 -19 10 -28
0 -9 4 -14 9 -11 4 3 13 -5 19 -18 9 -20 16 -22 61 -19 50 3 51 2 70 -35 11
-20 20 -31 21 -24 0 7 -7 24 -16 37 -16 25 -16 25 16 25 34 0 70 -25 47 -33
-6 -3 5 -4 26 -2 21 1 43 7 48 12 7 7 -2 9 -25 7 -20 -1 -38 1 -41 5 -6 11
287 8 304 -3 10 -6 12 -5 7 2 -5 8 8 11 41 9 37 -1 52 -7 64 -25 8 -12 19 -19
22 -15 4 3 7 -1 7 -10 0 -9 5 -17 10 -17 16 0 -6 36 -26 44 -22 9 -7 24 26 26
51 4 58 1 54 -22 -4 -21 -4 -21 4 -3 9 19 20 20 288 21 190 0 281 -3 286 -10
5 -7 8 -7 8 2 0 7 4 11 9 7 11 -6 61 15 61 26 0 20 112 179 122 173 7 -4 8 -2
4 4 -8 14 18 55 28 45 4 -4 4 0 0 10 -3 10 -1 17 6 17 6 0 8 5 4 12 -5 8 -2 9
10 5 10 -4 15 -3 11 3 -3 6 3 23 14 39 12 16 21 34 21 40 0 5 8 15 18 20 9 6
13 11 9 11 -5 0 1 14 13 30 12 17 26 28 31 25 5 -4 6 1 2 10 -8 22 13 34 46
28 14 -2 23 -1 19 2 -3 4 -14 8 -25 9 -10 2 -16 7 -13 12 3 5 8 8 12 7 5 -2 7
0 6 5 -4 14 13 52 23 52 6 0 7 5 4 10 -3 6 1 10 10 10 10 0 13 -5 9 -12 -5 -9
-2 -9 9 1 18 14 22 23 9 18 -7 -2 -12 6 -12 24 0 5 5 7 12 3 8 -5 9 -2 5 9 -3
10 -2 17 3 17 6 0 10 7 10 15 0 8 3 15 8 15 4 0 16 16 26 35 10 19 23 32 28
29 5 -3 8 2 6 12 -2 12 2 18 10 16 8 -1 11 2 8 7 -4 5 4 20 16 32 13 12 17 18
9 14 -9 -5 -7 1 4 19 10 14 22 26 28 26 6 0 7 3 4 7 -9 8 13 34 23 28 5 -3 12
0 16 6 4 8 3 9 -4 5 -17 -10 -15 10 3 27 8 8 11 17 8 21 -3 3 2 8 11 12 9 3
16 12 16 18 0 7 8 21 18 32 9 10 23 30 30 44 28 54 41 74 56 82 9 5 14 13 11
19 -4 5 1 12 9 15 9 3 13 11 9 17 -4 7 0 8 13 3 15 -5 16 -4 7 5 -12 12 -10
17 32 61 12 13 14 18 5 14 -9 -5 -9 -2 2 7 10 8 15 17 11 20 -3 4 -1 7 5 7 7
0 12 6 12 13 0 17 35 59 43 51 3 -3 4 1 3 10 0 8 4 15 9 14 6 0 9 -4 8 -9 -4
-14 3 -11 17 7 11 12 11 15 0 12 -19 -5 -23 18 -5 35 8 9 15 20 15 26 0 6 5
11 11 11 5 0 7 -6 3 -12 -4 -8 -2 -8 7 1 11 11 12 14 1 18 -10 4 -8 9 7 20 12
8 19 19 16 24 -4 5 -1 9 4 9 6 0 11 7 11 15 0 8 5 15 11 15 5 0 7 -5 3 -12 -4
-7 -3 -8 5 -4 9 6 9 11 1 21 -8 10 -5 17 12 29 13 9 23 20 23 24 0 4 9 6 20 4
20 -3 20 -3 0 13 -19 14 -18 15 18 11 22 -3 35 -1 31 5 -3 5 -10 7 -15 4 -5
-4 -17 -1 -26 4 -17 10 -16 11 4 17 13 4 20 11 16 20 -3 9 2 14 13 14 15 0 16
2 5 9 -11 7 -10 10 4 18 9 5 18 14 18 19 1 5 6 8 10 6 5 -1 6 2 2 7 -6 10 17
53 43 80 7 7 21 30 32 51 10 21 26 40 35 44 9 3 14 10 10 16 -3 5 3 18 14 29
11 11 17 22 14 25 -3 3 1 8 10 12 10 3 13 12 9 22 -5 15 -3 15 11 4 14 -12 16
-11 12 7 -2 11 1 24 7 27 6 4 8 2 4 -4 -3 -6 -2 -13 3 -17 6 -3 8 5 5 20 -2
14 0 25 6 25 6 0 8 5 5 10 -3 6 -3 10 2 10 4 0 14 12 20 28 7 15 25 41 40 58
16 17 29 37 31 43 3 13 63 107 84 131 8 9 22 32 31 53 10 20 21 37 25 37 4 0
13 15 21 33 8 17 17 34 20 37 4 3 19 24 34 48 l27 42 -330 0 -330 0 -27 -42
c-16 -24 -31 -44 -36 -46 -4 -2 -7 -7 -7 -12 0 -16 -108 -169 -115 -162 -4 4
-5 2 -4 -3 4 -13 -33 -83 -58 -112 -16 -18 -22 -20 -33 -10 -12 10 -12 9 -1
-5 12 -16 8 -26 -29 -83 -24 -35 -48 -61 -53 -58 -6 3 -7 1 -3 -5 8 -14 -54
-113 -67 -105 -5 3 -7 0 -5 -8 3 -8 -14 -42 -38 -77 -24 -35 -44 -65 -44 -68
0 -3 -10 -20 -23 -37 -12 -18 -27 -41 -34 -52 -6 -11 -16 -19 -21 -18 -5 1 -9
-5 -8 -15 0 -9 -4 -16 -11 -15 -7 2 -10 -3 -7 -10 2 -7 -8 -27 -22 -43 -15
-16 -26 -29 -23 -30 2 0 -9 -21 -25 -47 -16 -25 -33 -44 -38 -41 -4 3 -5 -2
-2 -10 3 -9 2 -16 -2 -16 -5 0 -15 -14 -22 -30 -8 -17 -18 -27 -24 -24 -7 4
-8 2 -4 -4 3 -6 -4 -21 -16 -33 -13 -12 -16 -18 -8 -13 8 4 0 -10 -17 -33 -18
-22 -33 -46 -33 -53 0 -6 -4 -8 -10 -5 -5 3 -10 -3 -10 -15 0 -11 -7 -23 -15
-26 -8 -4 -12 -10 -9 -15 3 -5 0 -9 -6 -9 -6 0 -9 -4 -6 -9 4 -5 3 -11 -2 -13
-4 -1 -25 -31 -47 -65 -22 -34 -43 -59 -47 -57 -4 3 -5 -2 -2 -10 3 -9 1 -16
-5 -16 -6 0 -11 -7 -11 -16 0 -11 -6 -15 -20 -11 -10 3 -18 0 -17 -5 2 -12
-16 -16 -105 -25 -54 -4 -68 -3 -68 8 0 11 -2 11 -10 -1 -6 -9 -10 -10 -10 -3
0 6 -9 10 -20 8 -11 -2 -20 0 -20 6 0 5 -7 9 -15 9 -8 0 -15 7 -15 15 0 7 -7
18 -16 23 -9 5 -15 12 -15 15 2 12 -2 24 -24 72 -10 22 -18 46 -18 53 0 6 -5
12 -10 12 -5 0 -6 7 -3 16 3 8 2 13 -3 10 -11 -7 -22 31 -14 50 5 13 9 12 27
-3 20 -18 20 -17 6 1 -14 18 -13 19 10 13 23 -5 23 -5 7 8 -12 8 -14 15 -8 20
6 3 11 3 11 0 0 -4 16 12 35 35 19 23 35 39 35 34 0 -4 12 15 26 42 14 27 31
52 38 56 6 4 8 8 3 8 -4 0 0 16 8 36 8 20 15 45 15 55 0 11 6 19 13 19 7 0 8
3 2 8 -13 9 -18 32 -6 32 9 0 7 82 -3 99 -4 6 -1 11 6 11 8 0 9 3 3 8 -5 4
-11 18 -13 32 -4 34 -43 132 -59 148 -7 7 -13 20 -13 28 0 8 -4 14 -9 14 -6 0
-18 13 -27 29 -10 17 -21 28 -26 25 -4 -3 -8 -1 -8 5 0 6 -25 29 -56 52 -70
52 -142 84 -204 93 -9 1 -20 5 -26 8 -14 9 -127 10 -189 3 -27 -4 -56 -7 -62
-7 -7 -1 -13 -5 -13 -10 0 -5 -4 -7 -8 -4 -10 6 -102 -36 -142 -64 -15 -11
-30 -17 -34 -15 -3 3 -4 3 -3 0 2 -3 -19 -29 -47 -58 -60 -62 -98 -107 -90
-107 4 0 0 -10 -8 -22 -8 -13 -20 -43 -27 -68 -12 -39 -16 -61 -25 -118 -1 -8
-9 -18 -17 -24 -11 -8 -11 -9 3 -4 15 5 17 0 14 -34 -2 -26 0 -40 8 -40 6 0 4
-5 -4 -10 -8 -5 -10 -10 -4 -10 7 0 14 -11 16 -25 3 -16 1 -22 -6 -18 -6 4 -3
-3 7 -14 9 -11 17 -27 17 -36 0 -9 5 -17 10 -17 6 0 10 -5 10 -11 0 -5 -4 -8
-9 -5 -5 3 -15 -2 -22 -12 -12 -15 -12 -16 1 -5 10 8 21 9 30 3 8 -6 11 -10 6
-10 -5 0 1 -8 12 -19 12 -10 19 -21 15 -24 -3 -4 1 -9 10 -13 14 -5 15 -8 2
-28 -13 -19 -13 -23 -1 -23 8 0 12 6 10 12 -3 6 2 12 11 12 9 0 14 -6 11 -14
-3 -7 0 -13 7 -13 14 0 38 -20 73 -62 16 -18 19 -30 12 -42 -5 -9 -14 -13 -20
-10 -7 5 -9 1 -5 -9 8 -21 -10 -70 -22 -63 -5 4 -7 -3 -4 -13 5 -20 -28 -91
-58 -124 -9 -10 -26 -19 -38 -20 -11 -1 -21 -4 -21 -7 0 -3 -25 -7 -57 -8 -38
-2 -59 1 -64 10 -6 8 -9 9 -9 2 0 -9 -11 -9 -42 0 -41 13 -103 71 -92 88 3 4
0 8 -6 8 -6 0 -16 12 -23 28 -6 15 -17 32 -24 37 -6 6 -13 17 -15 25 -2 8 -11
21 -21 28 -9 7 -15 17 -12 22 3 4 -2 13 -10 20 -8 7 -12 17 -8 23 3 5 1 7 -4
4 -10 -6 -18 4 -22 26 0 4 -10 16 -21 27 -11 11 -20 27 -20 35 0 8 -5 15 -10
15 -6 0 -16 12 -23 28 -6 15 -21 37 -31 50 -11 12 -21 29 -22 38 -1 8 -12 23
-23 33 -12 10 -21 21 -21 25 0 4 -23 40 -50 81 -28 41 -48 75 -44 75 4 0 -5
11 -20 25 -15 14 -23 25 -17 25 6 0 -1 12 -14 26 -14 15 -25 33 -25 40 0 7 -4
14 -8 16 -4 2 -39 50 -77 108 -37 58 -72 107 -77 108 -4 2 -6 8 -2 13 3 5 0 9
-5 9 -6 0 -11 5 -11 10 0 6 -14 29 -30 52 -17 23 -28 48 -26 54 3 9 -1 11 -11
7 -11 -4 -14 -2 -9 5 4 7 2 12 -3 12 -6 0 -11 5 -11 10 0 6 -5 16 -11 23 -6 7
-59 87 -120 180 l-109 167 -330 0 -329 0 22 -37z"/>
<path d="M173 3665 c0 -8 4 -12 9 -9 5 3 6 10 3 15 -9 13 -12 11 -12 -6z"/>
<path d="M271 3653 c7 -12 15 -20 18 -17 3 2 -3 12 -13 22 -17 16 -18 16 -5
-5z"/>
<path d="M4855 3661 c-3 -5 -2 -12 3 -15 5 -3 9 1 9 9 0 17 -3 19 -12 6z"/>
<path d="M4076 3633 c-6 -14 -5 -15 5 -6 7 7 10 15 7 18 -3 3 -9 -2 -12 -12z"/>
<path d="M186 3602 c-3 -5 1 -9 9 -9 8 0 12 4 9 9 -3 4 -7 8 -9 8 -2 0 -6 -4
-9 -8z"/>
<path d="M226 3598 c3 -5 9 -7 12 -4 3 3 12 0 21 -6 13 -10 14 -10 4 2 -15 16
-46 23 -37 8z"/>
<path d="M290 3599 c0 -5 5 -7 10 -4 6 3 10 8 10 11 0 2 -4 4 -10 4 -5 0 -10
-5 -10 -11z"/>
<path d="M316 3578 c5 -7 2 -9 -8 -5 -16 6 -20 -17 -5 -28 4 -3 5 -2 2 2 -3 4
4 12 16 18 19 11 19 13 5 18 -12 5 -15 3 -10 -5z"/>
<path d="M4774 3558 c-4 -7 -4 -10 1 -6 4 4 15 2 24 -5 14 -11 14 -10 2 6 -16
20 -18 21 -27 5z"/>
<path d="M325 3539 c-4 -6 -4 -13 -1 -16 3 -4 6 -1 6 6 0 7 5 9 12 5 7 -4 8
-3 4 4 -9 15 -13 15 -21 1z"/>
<path d="M360 3520 c0 -5 5 -10 11 -10 5 0 7 -5 3 -12 -4 -7 -3 -8 4 -4 6 4 9
13 5 21 -6 17 -23 20 -23 5z"/>
<path d="M4750 3526 c0 -2 7 -7 16 -10 8 -3 12 -2 9 4 -6 10 -25 14 -25 6z"/>
<path d="M350 3480 c0 -5 5 -10 11 -10 5 0 7 5 4 10 -3 6 -8 10 -11 10 -2 0
-4 -4 -4 -10z"/>
<path d="M380 3470 c-6 -11 -8 -20 -6 -20 3 0 10 9 16 20 6 11 8 20 6 20 -3 0
-10 -9 -16 -20z"/>
<path d="M342 3444 c10 -10 20 -16 22 -13 3 3 -5 11 -17 18 -21 13 -21 12 -5
-5z"/>
<path d="M421 3438 c-1 -12 -7 -16 -18 -12 -15 5 -16 4 -3 -5 17 -12 35 1 27
21 -4 9 -6 8 -6 -4z"/>
<path d="M4706 3438 c3 -5 10 -6 15 -3 13 9 11 12 -6 12 -8 0 -12 -4 -9 -9z"/>
<path d="M293 3425 c0 -8 4 -12 9 -9 5 3 6 10 3 15 -9 13 -12 11 -12 -6z"/>
<path d="M4675 3420 c-3 -5 -1 -10 4 -10 6 0 11 5 11 10 0 6 -2 10 -4 10 -3 0
-8 -4 -11 -10z"/>
<path d="M370 3416 c0 -2 8 -10 18 -17 15 -13 16 -12 3 4 -13 16 -21 21 -21
13z"/>
<path d="M426 3405 c-11 -8 -15 -15 -9 -15 6 0 16 7 23 15 16 19 11 19 -14 0z"/>
<path d="M454 3392 c5 -8 -1 -12 -16 -13 -18 -1 -19 -2 -4 -6 23 -6 43 12 25
22 -8 5 -10 4 -5 -3z"/>
<path d="M350 3360 c0 -5 5 -10 11 -10 5 0 7 5 4 10 -3 6 -8 10 -11 10 -2 0
-4 -4 -4 -10z"/>
<path d="M450 3319 c0 -5 5 -7 10 -4 6 3 10 8 10 11 0 2 -4 4 -10 4 -5 0 -10
-5 -10 -11z"/>
<path d="M495 3310 c6 -10 4 -12 -11 -6 -15 6 -17 5 -6 -5 9 -9 15 -10 23 -2
8 8 7 13 -2 18 -8 6 -10 4 -4 -5z"/>
<path d="M463 3283 c5 -6 5 -18 1 -25 -4 -7 -4 -10 1 -6 4 4 15 -1 24 -10 9
-10 13 -13 9 -8 -12 15 -9 28 4 20 7 -5 8 -3 4 5 -5 7 -10 10 -13 7 -3 -3 -13
3 -22 12 -9 10 -12 12 -8 5z"/>
<path d="M4630 3296 c0 -2 8 -10 18 -17 15 -13 16 -12 3 4 -13 16 -21 21 -21
13z"/>
<path d="M396 3273 c-6 -14 -5 -15 5 -6 7 7 10 15 7 18 -3 3 -9 -2 -12 -12z"/>
<path d="M430 3281 c0 -6 4 -13 10 -16 6 -3 7 1 4 9 -7 18 -14 21 -14 7z"/>
<path d="M519 3220 c-3 -20 -4 -25 -11 -36 -4 -6 -2 -11 5 -11 7 0 13 13 14
29 1 26 -5 40 -8 18z"/>
<path d="M474 3206 c1 -8 5 -18 8 -22 4 -3 5 1 4 10 -1 8 -5 18 -8 22 -4 3 -5
-1 -4 -10z"/>
<path d="M561 3204 c0 -11 3 -14 6 -6 3 7 2 16 -1 19 -3 4 -6 -2 -5 -13z"/>
<path d="M446 3162 c-3 -5 1 -9 9 -9 8 0 12 4 9 9 -3 4 -7 8 -9 8 -2 0 -6 -4
-9 -8z"/>
<path d="M4513 3151 c0 -11 5 -18 9 -15 4 3 5 11 1 19 -7 21 -12 19 -10 -4z"/>
<path d="M579 3148 c-6 -22 -5 -39 3 -45 6 -3 8 -1 4 5 -3 5 0 13 6 15 10 4
10 6 0 6 -7 1 -10 6 -7 11 3 6 4 10 1 10 -3 0 -6 -1 -7 -2z"/>
<path d="M613 3119 c-2 -23 3 -25 10 -4 4 8 3 16 -1 19 -4 3 -9 -4 -9 -15z"/>
<path d="M630 3102 c0 -5 7 -9 15 -9 8 0 12 4 9 9 -3 4 -9 8 -15 8 -5 0 -9 -4
-9 -8z"/>
<path d="M594 3083 c3 -4 2 -11 -4 -17 -6 -8 -3 -12 9 -12 12 0 17 5 13 15 -4
10 -1 12 9 6 8 -5 11 -4 6 0 -4 5 -15 10 -23 11 -9 1 -13 0 -10 -3z"/>
<path d="M637 3067 c-3 -8 1 -14 8 -14 7 0 11 6 8 14 -3 7 -6 13 -8 13 -2 0
-5 -6 -8 -13z"/>
<path d="M4490 3059 c0 -5 5 -7 10 -4 6 3 10 8 10 11 0 2 -4 4 -10 4 -5 0 -10
-5 -10 -11z"/>
<path d="M670 3042 c0 -5 7 -9 15 -9 8 0 12 4 9 9 -3 4 -9 8 -15 8 -5 0 -9 -4
-9 -8z"/>
<path d="M4435 3040 c-3 -5 -1 -10 4 -10 6 0 11 5 11 10 0 6 -2 10 -4 10 -3 0
-8 -4 -11 -10z"/>
<path d="M640 3020 c-12 -7 -10 -9 7 -7 12 0 19 5 17 9 -6 10 -6 10 -24 -2z"/>
<path d="M630 2996 c0 -2 9 -6 20 -9 11 -3 18 -1 14 4 -5 9 -34 13 -34 5z"/>
<path d="M710 2980 c0 -5 5 -10 10 -10 6 0 10 5 10 10 0 6 -4 10 -10 10 -5 0
-10 -4 -10 -10z"/>
<path d="M4435 2969 c-4 -6 -5 -12 -2 -15 2 -3 7 2 10 11 7 17 1 20 -8 4z"/>
<path d="M673 2963 c4 -3 2 -11 -3 -18 -7 -8 -5 -12 5 -12 8 0 12 4 9 9 -3 4
0 8 6 8 6 0 8 5 5 10 -3 6 -11 10 -17 10 -6 0 -8 -3 -5 -7z"/>
<path d="M713 2930 c-1 -11 2 -20 5 -20 4 0 8 9 9 20 1 11 -2 20 -5 20 -4 0
-8 -9 -9 -20z"/>
<path d="M1970 2900 c0 -5 5 -10 11 -10 5 0 7 5 4 10 -3 6 -8 10 -11 10 -2 0
-4 -4 -4 -10z"/>
<path d="M760 2889 c0 -5 -4 -8 -9 -4 -5 3 -13 0 -17 -6 -5 -8 -3 -9 6 -4 10
6 12 3 7 -11 -7 -18 -6 -18 6 -2 8 10 17 15 21 11 4 -4 4 0 0 10 -7 19 -14 22
-14 6z"/>
<path d="M639 2853 c-12 -16 -12 -17 2 -6 9 7 20 9 24 5 5 -4 5 -1 1 6 -9 16
-11 15 -27 -5z"/>
<path d="M1994 2840 c0 -13 4 -16 10 -10 7 7 7 13 0 20 -6 6 -10 3 -10 -10z"/>
<path d="M756 2842 c-3 -5 1 -9 9 -9 8 0 15 4 15 9 0 4 -4 8 -9 8 -6 0 -12 -4
-15 -8z"/>
<path d="M3115 2840 c-3 -5 -1 -10 4 -10 6 0 11 5 11 10 0 6 -2 10 -4 10 -3 0
-8 -4 -11 -10z"/>
<path d="M4350 2840 c0 -5 5 -10 11 -10 5 0 7 5 4 10 -3 6 -8 10 -11 10 -2 0
-4 -4 -4 -10z"/>
<path d="M793 2810 c-1 -11 2 -20 5 -20 4 0 8 9 9 20 1 11 -2 20 -5 20 -4 0
-8 -9 -9 -20z"/>
<path d="M841 2794 c0 -11 3 -14 6 -6 3 7 2 16 -1 19 -3 4 -6 -2 -5 -13z"/>
<path d="M855 2740 c-3 -5 -3 -10 1 -10 3 0 -4 -9 -17 -21 l-24 -20 27 17 c15
9 25 21 21 27 -4 6 0 8 11 4 10 -4 15 -3 11 3 -8 13 -22 13 -30 0z"/>
<path d="M1976 2738 c3 -5 10 -6 15 -3 13 9 11 12 -6 12 -8 0 -12 -4 -9 -9z"/>
<path d="M4295 2740 c3 -5 8 -10 11 -10 2 0 4 5 4 10 0 6 -5 10 -11 10 -5 0
-7 -4 -4 -10z"/>
<path d="M790 2721 c0 -6 4 -12 8 -15 5 -3 9 1 9 9 0 8 -4 15 -9 15 -4 0 -8
-4 -8 -9z"/>
<path d="M2017 2711 c-10 -14 -10 -14 4 -4 9 7 18 10 21 7 3 -3 8 -1 12 4 9
16 -24 9 -37 -7z"/>
<path d="M2066 2703 c-6 -14 -5 -15 5 -6 7 7 10 15 7 18 -3 3 -9 -2 -12 -12z"/>
<path d="M873 2690 c-1 -11 2 -20 5 -20 4 0 8 9 9 20 1 11 -2 20 -5 20 -4 0
-8 -9 -9 -20z"/>
<path d="M2087 2679 c7 -7 15 -10 18 -7 3 3 -2 9 -12 12 -14 6 -15 5 -6 -5z"/>
<path d="M4356 2673 c-6 -14 -5 -15 5 -6 7 7 10 15 7 18 -3 3 -9 -2 -12 -12z"/>
<path d="M2975 2639 c-4 -6 -5 -12 -2 -15 2 -3 7 2 10 11 7 17 1 20 -8 4z"/>
<path d="M2074 2626 c1 -8 5 -18 8 -22 4 -3 5 1 4 10 -1 8 -5 18 -8 22 -4 3
-5 -1 -4 -10z"/>
<path d="M910 2620 c0 -5 5 -10 10 -10 6 0 10 5 10 10 0 6 -4 10 -10 10 -5 0
-10 -4 -10 -10z"/>
<path d="M2104 2597 c0 -15 6 -23 14 -20 10 4 10 9 0 22 -7 9 -13 17 -14 19
-1 2 -1 -8 0 -21z"/>
<path d="M2150 2609 c-13 -9 -13 -10 2 -6 21 7 32 -19 12 -27 -9 -3 -13 -10
-10 -15 4 -5 1 -12 -4 -14 -7 -4 -6 -5 1 -3 6 1 9 5 7 8 -2 4 5 13 15 20 15
11 16 16 5 30 -10 13 -17 15 -28 7z"/>
<path d="M2986 2598 c3 -4 9 -8 15 -8 5 0 9 4 9 8 0 5 -7 9 -15 9 -8 0 -12 -4
-9 -9z"/>
<path d="M4159 2593 c-13 -16 -12 -17 4 -4 9 7 17 15 17 17 0 8 -8 3 -21 -13z"/>
<path d="M950 2591 c0 -10 19 -25 25 -20 1 2 -3 10 -11 17 -8 7 -14 8 -14 3z"/>
<path d="M2055 2580 c3 -5 8 -10 11 -10 2 0 4 5 4 10 0 6 -5 10 -11 10 -5 0
-7 -4 -4 -10z"/>
<path d="M895 2560 c3 -4 16 -6 30 -5 14 2 27 -1 31 -6 3 -5 11 -9 17 -9 7 0
3 6 -8 13 -22 13 -77 18 -70 7z"/>
<path d="M2193 2563 c4 -3 0 -11 -8 -17 -11 -8 -12 -15 -4 -26 9 -13 10 -13 6
2 -3 9 1 19 9 22 8 3 14 1 14 -4 0 -6 5 -10 10 -10 6 0 5 8 -2 20 -7 11 -17
20 -22 20 -5 0 -6 -3 -3 -7z"/>
<path d="M4139 2568 c-5 -18 -6 -38 -1 -34 7 8 12 36 6 36 -2 0 -4 -1 -5 -2z"/>
<path d="M2880 2551 c0 -6 4 -13 10 -16 6 -3 7 1 4 9 -7 18 -14 21 -14 7z"/>
<path d="M2056 2535 c-9 -26 -7 -32 5 -12 6 10 9 21 6 23 -2 3 -7 -2 -11 -11z"/>
<path d="M2139 2513 c-13 -16 -12 -17 4 -4 9 7 17 15 17 17 0 8 -8 3 -21 -13z"/>
<path d="M990 2500 c0 -5 5 -10 10 -10 6 0 10 5 10 10 0 6 -4 10 -10 10 -5 0
-10 -4 -10 -10z"/>
<path d="M4126 2498 c3 -5 10 -6 15 -3 13 9 11 12 -6 12 -8 0 -12 -4 -9 -9z"/>
<path d="M2177 2481 c-3 -13 -1 -18 9 -14 7 2 10 11 7 19 -7 19 -10 18 -16 -5z"/>
<path d="M4066 2458 c3 -5 10 -6 15 -3 13 9 11 12 -6 12 -8 0 -12 -4 -9 -9z"/>
<path d="M1020 2452 c0 -6 -8 -9 -17 -6 -15 5 -16 4 -3 -5 16 -11 40 3 27 16
-4 3 -7 1 -7 -5z"/>
<path d="M2147 2439 c7 -7 15 -10 18 -7 3 3 -2 9 -12 12 -14 6 -15 5 -6 -5z"/>
<path d="M2996 2438 c3 -5 10 -6 15 -3 13 9 11 12 -6 12 -8 0 -12 -4 -9 -9z"/>
<path d="M987 2419 c7 -7 15 -10 18 -7 3 3 -2 9 -12 12 -14 6 -15 5 -6 -5z"/>
<path d="M1055 2421 c-8 -14 35 -35 47 -23 6 6 5 12 -3 17 -8 5 -10 4 -5 -3 8
-14 4 -15 -18 -6 -9 3 -13 10 -10 15 3 5 3 9 0 9 -3 0 -7 -4 -11 -9z"/>
<path d="M2051 2407 c2 -1 13 -9 24 -17 19 -14 19 -14 6 3 -7 9 -18 17 -24 17
-6 0 -8 -1 -6 -3z"/>
<path d="M970 2379 c0 -5 5 -7 10 -4 6 3 10 8 10 11 0 2 -4 4 -10 4 -5 0 -10
-5 -10 -11z"/>
<path d="M1070 2358 c0 -4 7 -8 15 -8 8 0 15 4 15 8 0 5 -7 9 -15 9 -8 0 -15
-4 -15 -9z"/>
<path d="M1015 2340 c3 -5 8 -10 11 -10 2 0 4 5 4 10 0 6 -5 10 -11 10 -5 0
-7 -4 -4 -10z"/>
<path d="M1115 2341 c3 -5 1 -12 -5 -16 -5 -3 -10 -11 -10 -18 0 -6 7 -2 15 9
17 23 19 34 4 34 -5 0 -8 -4 -4 -9z"/>
<path d="M956 2322 c-3 -5 1 -9 9 -9 8 0 12 4 9 9 -3 4 -7 8 -9 8 -2 0 -6 -4
-9 -8z"/>
<path d="M1135 2320 c-3 -6 1 -7 9 -4 18 7 21 14 7 14 -6 0 -13 -4 -16 -10z"/>
<path d="M3955 2321 c-3 -5 -2 -12 3 -15 5 -3 9 1 9 9 0 17 -3 19 -12 6z"/>
<path d="M4013 2295 c0 -8 4 -12 9 -9 5 3 6 10 3 15 -9 13 -12 11 -12 -6z"/>
<path d="M1126 2283 c-6 -14 -5 -15 5 -6 7 7 10 15 7 18 -3 3 -9 -2 -12 -12z"/>
<path d="M1055 2260 c-3 -5 -1 -10 4 -10 6 0 11 5 11 10 0 6 -2 10 -4 10 -3 0
-8 -4 -11 -10z"/>
<path d="M1156 2255 c7 -18 6 -19 -12 -5 -18 14 -18 14 -5 -3 10 -12 17 -15
25 -7 7 7 6 14 -3 23 -10 10 -11 8 -5 -8z"/>
<path d="M1089 2243 c-13 -16 -12 -17 4 -4 9 7 17 15 17 17 0 8 -8 3 -21 -13z"/>
<path d="M1190 2245 c0 -8 4 -15 10 -15 5 0 7 7 4 15 -4 8 -8 15 -10 15 -2 0
-4 -7 -4 -15z"/>
<path d="M1110 2236 c0 -2 8 -10 18 -17 15 -13 16 -12 3 4 -13 16 -21 21 -21
13z"/>
<path d="M1212 2200 c0 -14 2 -19 5 -12 2 6 2 18 0 25 -3 6 -5 1 -5 -13z"/>
<path d="M1159 2192 c-13 -15 -12 -16 3 -4 13 10 17 10 21 0 4 -9 6 -9 6 -1 2
20 -16 24 -30 5z"/>
<path d="M1230 2179 c0 -5 5 -7 10 -4 6 3 10 8 10 11 0 2 -4 4 -10 4 -5 0 -10
-5 -10 -11z"/>
<path d="M3879 2178 c-5 -18 -6 -38 -1 -34 7 8 12 36 6 36 -2 0 -4 -1 -5 -2z"/>
<path d="M1240 2160 c-9 -6 -10 -10 -3 -10 6 0 15 5 18 10 8 12 4 12 -15 0z"/>
<path d="M3900 2166 c0 -2 8 -10 18 -17 15 -13 16 -12 3 4 -13 16 -21 21 -21
13z"/>
<path d="M1213 2143 c7 -12 -26 -46 -36 -38 -4 3 -5 2 -2 -2 3 -4 13 -8 21 -9
9 -1 13 0 10 3 -3 4 1 14 10 24 12 13 12 19 3 25 -7 4 -10 3 -6 -3z"/>
<path d="M3870 2121 c0 -6 4 -13 10 -16 6 -3 7 1 4 9 -7 18 -14 21 -14 7z"/>
<path d="M1232 2108 c-9 -12 -8 -14 8 -13 11 1 23 5 27 10 5 4 3 5 -4 2 -6 -4
-13 -2 -15 4 -2 7 -8 6 -16 -3z"/>
<path d="M1270 2080 c0 -5 5 -10 10 -10 6 0 10 5 10 10 0 6 -4 10 -10 10 -5 0
-10 -4 -10 -10z"/>
<path d="M3816 2073 c-6 -14 -5 -15 5 -6 7 7 10 15 7 18 -3 3 -9 -2 -12 -12z"/>
<path d="M1227 2039 c7 -7 15 -10 18 -7 3 3 -2 9 -12 12 -14 6 -15 5 -6 -5z"/>
<path d="M1270 2021 c0 -6 4 -12 8 -15 5 -3 9 1 9 9 0 8 -4 15 -9 15 -4 0 -8
-4 -8 -9z"/>
<path d="M1301 2013 c-1 -17 16 -25 25 -12 4 7 3 9 -4 5 -5 -3 -13 0 -15 6 -4
9 -6 10 -6 1z"/>
<path d="M1255 1980 c3 -5 8 -10 11 -10 2 0 4 5 4 10 0 6 -5 10 -11 10 -5 0
-7 -4 -4 -10z"/>
<path d="M1350 1985 c0 -5 5 -17 10 -25 5 -8 10 -10 10 -5 0 6 -5 17 -10 25
-5 8 -10 11 -10 5z"/>
<path d="M3756 1978 c3 -5 10 -6 15 -3 13 9 11 12 -6 12 -8 0 -12 -4 -9 -9z"/>
<path d="M3815 1981 c-3 -5 -2 -12 3 -15 5 -3 9 1 9 9 0 17 -3 19 -12 6z"/>
<path d="M1324 1959 c-4 -7 -3 -9 4 -5 5 3 13 0 15 -6 4 -9 6 -10 6 -1 1 17
-16 25 -25 12z"/>
<path d="M1256 1935 c-9 -26 -7 -32 5 -12 6 10 9 21 6 23 -2 3 -7 -2 -11 -11z"/>
<path d="M1376 1942 c-2 -4 -1 -14 3 -21 6 -9 11 -10 15 -2 4 6 2 11 -4 11 -6
0 -8 5 -5 10 3 6 4 10 1 10 -3 0 -7 -4 -10 -8z"/>
<path d="M3746 1938 c3 -4 9 -8 15 -8 5 0 9 4 9 8 0 5 -7 9 -15 9 -8 0 -12 -4
-9 -9z"/>
<path d="M1336 1913 c-6 -14 -5 -15 5 -6 7 7 10 15 7 18 -3 3 -9 -2 -12 -12z"/>
<path d="M3700 1919 c0 -5 5 -7 10 -4 6 3 10 8 10 11 0 2 -4 4 -10 4 -5 0 -10
-5 -10 -11z"/>
<path d="M1290 1899 c0 -5 5 -7 10 -4 6 3 10 8 10 11 0 2 -4 4 -10 4 -5 0 -10
-5 -10 -11z"/>
<path d="M3730 1900 c0 -5 5 -10 11 -10 5 0 7 5 4 10 -3 6 -8 10 -11 10 -2 0
-4 -4 -4 -10z"/>
<path d="M1400 1875 c-11 -13 -10 -14 4 -9 9 3 16 10 16 15 0 13 -6 11 -20 -6z"/>
<path d="M3677 1883 c-4 -3 -7 -11 -7 -17 0 -6 5 -5 12 2 6 6 9 14 7 17 -3 3
-9 2 -12 -2z"/>
<path d="M1360 1860 c-9 -6 -10 -10 -3 -10 6 0 15 5 18 10 8 12 4 12 -15 0z"/>
<path d="M1430 1860 c0 -5 5 -10 10 -10 6 0 10 5 10 10 0 6 -4 10 -10 10 -5 0
-10 -4 -10 -10z"/>
<path d="M1376 1842 c-3 -5 1 -9 9 -9 8 0 12 4 9 9 -3 4 -7 8 -9 8 -2 0 -6 -4
-9 -8z"/>
<path d="M1435 1829 c-4 -6 -5 -12 -2 -15 2 -3 7 2 10 11 7 17 1 20 -8 4z"/>
<path d="M1455 1821 c-6 -11 13 -26 22 -17 4 3 1 6 -6 6 -7 0 -9 5 -6 10 3 6
4 10 1 10 -3 0 -7 -4 -11 -9z"/>
<path d="M1400 1780 c-9 -6 -10 -10 -3 -10 6 0 15 5 18 10 8 12 4 12 -15 0z"/>
<path d="M1439 1778 c-8 -16 -3 -45 7 -45 10 0 11 4 3 13 -6 7 -8 18 -4 24 3
5 4 10 1 10 -3 0 -7 -1 -7 -2z"/>
<path d="M1476 1763 c-6 -14 -5 -15 5 -6 7 7 10 15 7 18 -3 3 -9 -2 -12 -12z"/>
<path d="M1485 1720 c21 -24 26 -25 19 -6 -3 8 -13 17 -22 21 -13 5 -13 2 3
-15z"/>
<path d="M1467 1699 c7 -7 15 -10 18 -7 3 3 -2 9 -12 12 -14 6 -15 5 -6 -5z"/>
<path d="M1413 1685 c0 -8 4 -12 9 -9 5 3 6 10 3 15 -9 13 -12 11 -12 -6z"/>
<path d="M1475 1671 c-3 -5 -2 -12 3 -15 5 -3 9 1 9 9 0 17 -3 19 -12 6z"/>
<path d="M1511 1663 c-1 -17 19 -27 31 -15 6 6 6 12 -3 17 -8 5 -10 4 -5 -3 4
-7 3 -12 -3 -12 -5 0 -12 6 -14 13 -4 9 -6 9 -6 0z"/>
<path d="M1455 1640 c-3 -5 -1 -10 4 -10 6 0 11 5 11 10 0 6 -2 10 -4 10 -3 0
-8 -4 -11 -10z"/>
<path d="M3556 1633 c-6 -14 -5 -15 5 -6 7 7 10 15 7 18 -3 3 -9 -2 -12 -12z"/>
<path d="M1595 1623 c5 -19 3 -22 -12 -17 -15 5 -15 4 -3 -5 21 -14 35 3 21
26 -11 16 -11 16 -6 -4z"/>
<path d="M3514 1626 c1 -8 5 -18 8 -22 4 -3 5 1 4 10 -1 8 -5 18 -8 22 -4 3
-5 -1 -4 -10z"/>
<path d="M1495 1580 c-3 -5 -1 -10 4 -10 6 0 11 5 11 10 0 6 -2 10 -4 10 -3 0
-8 -4 -11 -10z"/>
<path d="M1554 1574 c1 -8 4 -15 7 -16 2 -2 3 -1 2 1 -2 2 2 9 7 16 7 8 5 12
-4 12 -8 0 -13 -6 -12 -13z"/>
<path d="M3519 1573 c-13 -17 -13 -17 6 -3 11 8 22 16 24 17 2 2 0 3 -6 3 -6
0 -17 -8 -24 -17z"/>
<path d="M1610 1560 c0 -5 5 -10 10 -10 6 0 10 5 10 10 0 6 -4 10 -10 10 -5 0
-10 -4 -10 -10z"/>
<path d="M1533 1545 c0 -8 4 -12 9 -9 5 3 6 10 3 15 -9 13 -12 11 -12 -6z"/>
<path d="M1637 1525 c3 -8 9 -12 14 -9 12 7 11 11 -5 17 -10 4 -13 1 -9 -8z"/>
<path d="M3475 1520 c-3 -5 -1 -10 4 -10 6 0 11 5 11 10 0 6 -2 10 -4 10 -3 0
-8 -4 -11 -10z"/>
<path d="M1550 1499 c0 -5 5 -7 10 -4 6 3 10 8 10 11 0 2 -4 4 -10 4 -5 0 -10
-5 -10 -11z"/>
<path d="M1604 1478 c-12 -14 -13 -18 -3 -10 9 6 18 10 21 7 2 -3 5 2 5 10 0
19 0 19 -23 -7z"/>
<path d="M1664 1484 c-18 -14 -18 -15 4 -4 12 6 22 13 22 15 0 8 -5 6 -26 -11z"/>
<path d="M1695 1470 c6 -10 4 -12 -11 -6 -15 6 -17 5 -6 -5 9 -9 15 -10 23 -2
8 8 7 13 -2 18 -8 6 -10 4 -4 -5z"/>
<path d="M3427 1459 c7 -7 15 -10 18 -7 3 3 -2 9 -12 12 -14 6 -15 5 -6 -5z"/>
<path d="M1595 1440 c-3 -5 -1 -10 4 -10 6 0 11 5 11 10 0 6 -2 10 -4 10 -3 0
-8 -4 -11 -10z"/>
<path d="M1630 1441 c0 -6 4 -12 8 -15 5 -3 9 1 9 9 0 8 -4 15 -9 15 -4 0 -8
-4 -8 -9z"/>
<path d="M3396 1433 c-6 -14 -5 -15 5 -6 7 7 10 15 7 18 -3 3 -9 -2 -12 -12z"/>
<path d="M1710 1405 c0 -8 4 -15 10 -15 5 0 7 7 4 15 -4 8 -8 15 -10 15 -2 0
-4 -7 -4 -15z"/>
<path d="M1673 1385 c0 -8 4 -12 9 -9 5 3 6 10 3 15 -9 13 -12 11 -12 -6z"/>
<path d="M1735 1381 c-6 -11 13 -26 22 -17 4 3 1 6 -6 6 -7 0 -9 5 -6 10 3 6
4 10 1 10 -3 0 -7 -4 -11 -9z"/>
<path d="M1689 1363 c-13 -16 -12 -17 4 -4 9 7 17 15 17 17 0 8 -8 3 -21 -13z"/>
<path d="M1650 1340 c0 -5 5 -10 11 -10 5 0 7 5 4 10 -3 6 -8 10 -11 10 -2 0
-4 -4 -4 -10z"/>
<path d="M3436 1342 c-3 -5 1 -9 9 -9 8 0 12 4 9 9 -3 4 -7 8 -9 8 -2 0 -6 -4
-9 -8z"/>
<path d="M1730 1322 c0 -4 12 -8 28 -9 23 -1 24 -1 7 7 -26 11 -35 12 -35 2z"/>
<path d="M1695 1300 c3 -5 8 -10 11 -10 2 0 4 5 4 10 0 6 -5 10 -11 10 -5 0
-7 -4 -4 -10z"/>
<path d="M1730 1296 c0 -2 8 -10 18 -17 15 -13 16 -12 3 4 -13 16 -21 21 -21
13z"/>
<path d="M3286 1278 c3 -5 10 -6 15 -3 13 9 11 12 -6 12 -8 0 -12 -4 -9 -9z"/>
<path d="M1635 1249 c-4 -6 -5 -12 -2 -15 2 -3 7 2 10 11 7 17 1 20 -8 4z"/>
<path d="M1780 1241 c0 -4 11 -7 25 -7 14 0 25 3 25 7 0 3 -11 7 -25 7 -14 0
-25 -4 -25 -7z"/>
<path d="M1854 1232 c3 -6 -2 -13 -11 -15 -16 -4 -16 -5 -1 -6 21 -1 32 15 17
25 -7 4 -9 3 -5 -4z"/>
<path d="M3285 1220 c-3 -6 1 -7 9 -4 18 7 21 14 7 14 -6 0 -13 -4 -16 -10z"/>
<path d="M1870 1201 c0 -6 4 -13 10 -16 6 -3 7 1 4 9 -7 18 -14 21 -14 7z"/>
<path d="M1915 1200 c3 -6 1 -10 -6 -10 -7 0 -10 -3 -6 -6 3 -3 13 -2 22 4 16
8 16 9 1 15 -10 4 -15 3 -11 -3z"/>
<path d="M1956 1194 c-9 -24 -2 -26 12 -4 7 11 8 20 3 20 -5 0 -12 -7 -15 -16z"/>
<path d="M2025 1200 c3 -5 8 -10 11 -10 2 0 4 5 4 10 0 6 -5 10 -11 10 -5 0
-7 -4 -4 -10z"/>
<path d="M2047 1191 c-4 -17 -3 -21 5 -13 5 5 8 16 6 23 -3 8 -7 3 -11 -10z"/>
<path d="M2170 1199 c0 -5 5 -7 10 -4 6 3 10 1 10 -4 0 -6 5 -11 11 -11 8 0 8
5 -1 15 -14 17 -30 20 -30 4z"/>
<path d="M2222 1190 c7 -11 16 -20 19 -20 4 0 9 -9 12 -19 4 -15 11 -18 27
-14 18 5 21 3 15 -7 -5 -9 -4 -11 4 -6 17 11 2 29 -19 23 -13 -3 -20 2 -24 17
-3 11 -15 27 -26 34 -19 12 -20 11 -8 -8z"/>
<path d="M2266 1202 c-7 -11 5 -27 31 -41 27 -14 38 0 23 29 -9 17 -30 20 -30
4 0 -3 4 -3 9 0 8 6 25 -23 18 -30 -7 -7 -47 28 -42 37 4 5 4 9 1 9 -3 0 -7
-4 -10 -8z"/>
<path d="M2333 1197 c4 -10 7 -21 7 -23 0 -3 5 -2 12 2 8 5 9 2 5 -9 -7 -18 8
-33 17 -18 4 5 18 8 32 5 16 -3 23 -1 19 6 -3 5 -16 8 -27 6 -14 -2 -31 7 -47
23 -17 19 -22 21 -18 8z"/>
<path d="M2372 1194 c9 -9 21 -15 27 -13 6 2 -2 10 -17 17 -25 11 -25 11 -10
-4z"/>
<path d="M2421 1193 c24 -31 40 -46 44 -41 5 5 -40 58 -50 58 -4 0 -1 -8 6
-17z"/>
<path d="M2466 1185 c9 -14 21 -25 28 -24 7 0 6 2 -2 6 -6 2 -10 8 -8 12 3 4
-4 13 -15 19 -19 12 -19 12 -3 -13z"/>
<path d="M2540 1198 c0 -3 9 -6 20 -5 11 1 20 5 20 9 0 3 -9 6 -20 5 -11 -1
-20 -5 -20 -9z"/>
<path d="M2616 1193 c-4 -13 -12 -23 -17 -23 -5 0 -9 -5 -9 -12 0 -7 9 -3 21
9 12 11 19 27 17 34 -3 9 -7 6 -12 -8z"/>
<path d="M2642 1185 c-17 -37 -14 -45 4 -12 9 16 14 31 11 33 -2 2 -9 -7 -15
-21z"/>
<path d="M2684 1192 c-18 -14 -18 -14 -1 -8 11 3 30 -2 46 -13 20 -14 31 -17
42 -9 11 8 11 9 -3 5 -9 -3 -27 4 -41 17 -22 20 -26 21 -43 8z"/>
<path d="M2781 1198 c-1 -23 19 -34 30 -17 5 8 9 19 9 24 -1 6 -6 1 -12 -10
-11 -19 -11 -19 -19 0 -6 16 -8 17 -8 3z"/>
<path d="M2835 1183 c-14 -14 -25 -30 -25 -35 0 -5 11 3 23 18 l24 28 30 -22
c21 -15 33 -18 44 -10 11 8 11 9 -3 5 -9 -3 -27 4 -42 18 l-25 23 -26 -25z"/>
<path d="M2941 1198 c-1 -23 19 -34 30 -17 5 8 9 19 9 24 -1 6 -6 1 -12 -10
-11 -19 -11 -19 -19 0 -6 16 -8 17 -8 3z"/>
<path d="M2993 1182 c-13 -15 -23 -31 -23 -35 0 -5 12 6 26 23 15 17 25 33 23
35 -2 2 -14 -9 -26 -23z"/>
<path d="M3034 1199 c-8 -14 11 -33 25 -25 11 7 4 36 -9 36 -5 0 -12 -5 -16
-11z m21 -9 c3 -5 1 -10 -4 -10 -6 0 -11 5 -11 10 0 6 2 10 4 10 3 0 8 -4 11
-10z"/>
<path d="M3090 1200 c-8 -5 -10 -10 -5 -10 6 0 17 5 25 10 8 5 11 10 5 10 -5
0 -17 -5 -25 -10z"/>
<path d="M3140 1200 c0 -5 5 -10 11 -10 5 0 7 5 4 10 -3 6 -8 10 -11 10 -2 0
-4 -4 -4 -10z"/>
<path d="M3220 1200 c-9 -6 -10 -10 -3 -10 6 0 15 5 18 10 8 12 4 12 -15 0z"/>
<path d="M2750 1190 c0 -5 5 -10 11 -10 5 0 7 5 4 10 -3 6 -8 10 -11 10 -2 0
-4 -4 -4 -10z"/>
<path d="M2910 1190 c0 -5 5 -10 11 -10 5 0 7 5 4 10 -3 6 -8 10 -11 10 -2 0
-4 -4 -4 -10z"/>
<path d="M1973 1175 c-3 -9 -3 -19 1 -22 3 -4 6 1 6 11 0 10 5 14 12 10 7 -4
8 -3 4 4 -10 16 -15 15 -23 -3z"/>
<path d="M3113 1172 c0 -10 7 -19 14 -19 9 0 10 4 3 12 -5 7 -7 15 -3 18 3 4
1 7 -5 7 -6 0 -10 -8 -9 -18z"/>
<path d="M2143 1173 c-7 -2 -13 -12 -13 -21 0 -13 2 -13 13 2 11 15 18 16 33
8 12 -6 26 -7 34 -2 12 7 10 9 -5 8 -11 0 -27 2 -35 5 -8 3 -21 3 -27 0z"/>
<path d="M2558 1173 c7 -3 16 -2 19 1 4 3 -2 6 -13 5 -11 0 -14 -3 -6 -6z"/>
<path d="M1880 1160 c-8 -5 -10 -10 -5 -10 6 0 17 5 25 10 8 5 11 10 5 10 -5
0 -17 -5 -25 -10z"/>
<path d="M1920 1166 c0 -2 7 -7 16 -10 8 -3 12 -2 9 4 -6 10 -25 14 -25 6z"/>
<path d="M2096 1155 c4 -8 8 -15 10 -15 2 0 4 7 4 15 0 8 -4 15 -10 15 -5 0
-7 -7 -4 -15z"/>
<path d="M2655 1159 c-11 -16 -1 -19 13 -3 7 8 8 14 3 14 -5 0 -13 -5 -16 -11z"/>
<path d="M2711 1152 c15 -9 25 -25 23 -35 -1 -9 2 -14 7 -11 6 3 16 2 22 -3 7
-4 4 0 -6 10 -11 9 -15 17 -11 17 12 1 -39 40 -51 40 -5 0 2 -8 16 -18z"/>
<path d="M2873 1152 c15 -10 24 -22 20 -27 -5 -4 -2 -5 6 0 11 6 9 12 -10 26
-13 10 -28 19 -34 19 -5 0 2 -8 18 -18z"/>
<path d="M3000 1155 c-19 -22 -8 -25 13 -3 9 10 13 18 8 18 -5 0 -14 -7 -21
-15z"/>
<path d="M3078 1163 c7 -3 16 -2 19 1 4 3 -2 6 -13 5 -11 0 -14 -3 -6 -6z"/>
<path d="M2510 1151 c0 -7 -5 -9 -12 -5 -7 5 -8 3 -3 -5 5 -9 10 -10 18 -2 6
6 8 14 4 18 -4 3 -7 1 -7 -6z"/>
<path d="M3030 1150 c-9 -6 -10 -10 -3 -10 6 0 15 5 18 10 8 12 4 12 -15 0z"/>
<path d="M1835 1140 c3 -5 8 -10 11 -10 2 0 4 5 4 10 0 6 -5 10 -11 10 -5 0
-7 -4 -4 -10z"/>
<path d="M1906 1142 c-2 -4 4 -8 14 -8 10 0 16 4 14 8 -3 4 -9 8 -14 8 -5 0
-11 -4 -14 -8z"/>
<path d="M2044 1136 c-10 -8 -17 -16 -14 -19 3 -2 14 4 24 14 23 22 18 25 -10
5z"/>
<path d="M2076 1133 c-4 -10 0 -23 11 -32 15 -15 16 -15 5 0 -7 9 -10 24 -6
33 3 9 4 16 1 16 -3 0 -8 -8 -11 -17z"/>
<path d="M2150 1141 c0 -6 7 -8 15 -5 11 4 13 2 9 -9 -3 -8 -1 -17 4 -21 5 -3
8 5 7 17 -2 21 -35 39 -35 18z"/>
<path d="M2204 1139 c-4 -7 -3 -9 4 -5 6 3 13 -2 15 -11 4 -16 5 -16 6 -1 1
21 -15 32 -25 17z"/>
<path d="M2336 1137 c4 -12 2 -17 -6 -15 -7 2 -15 -4 -17 -12 -4 -13 -3 -13 6
0 6 8 11 11 11 6 0 -6 5 -5 12 2 9 9 9 15 -1 25 -10 10 -11 8 -5 -6z"/>
<path d="M2614 1142 c3 -5 2 -12 -4 -14 -5 -2 -6 -9 -1 -16 6 -10 10 -9 14 7
3 12 0 24 -5 28 -6 3 -8 1 -4 -5z"/>
<path d="M2670 1140 c0 -5 7 -7 15 -4 11 5 14 1 9 -12 -5 -15 -4 -16 4 -4 6 8
8 18 6 22 -7 11 -34 10 -34 -2z"/>
<path d="M2765 1139 c-5 -8 -4 -10 0 -6 5 4 15 -3 22 -15 7 -13 12 -17 13 -10
0 7 5 10 12 6 7 -5 8 -3 4 5 -5 7 -10 10 -14 7 -3 -3 -10 2 -17 11 -10 13 -13
14 -20 2z"/>
<path d="M2830 1140 c0 -5 7 -7 15 -4 11 5 14 1 9 -12 -5 -15 -4 -16 4 -4 6 8
8 18 6 22 -7 11 -34 10 -34 -2z"/>
<path d="M2936 1137 c3 -10 9 -15 12 -12 3 3 0 11 -7 18 -10 9 -11 8 -5 -6z"/>
<path d="M3206 1142 c-3 -5 1 -9 9 -9 8 0 12 4 9 9 -3 4 -7 8 -9 8 -2 0 -6 -4
-9 -8z"/>
<path d="M1988 1133 c6 -2 18 -2 25 0 6 3 1 5 -13 5 -14 0 -19 -2 -12 -5z"/>
<path d="M2428 1133 c7 -3 16 -2 19 1 4 3 -2 6 -13 5 -11 0 -14 -3 -6 -6z"/>
<path d="M2460 1136 c0 -2 7 -7 16 -10 8 -3 12 -2 9 4 -6 10 -25 14 -25 6z"/>
<path d="M2541 1137 c2 -1 12 -9 22 -16 15 -12 17 -12 11 3 -3 9 -13 16 -22
16 -8 0 -13 -1 -11 -3z"/>
<path d="M2106 1118 c3 -4 9 -8 15 -8 5 0 9 4 9 8 0 5 -7 9 -15 9 -8 0 -12 -4
-9 -9z"/>
<path d="M2366 1117 c3 -10 9 -15 12 -12 3 3 0 11 -7 18 -10 9 -11 8 -5 -6z"/>
<path d="M2395 1121 c-6 -11 13 -26 22 -17 4 3 1 6 -6 6 -7 0 -9 5 -6 10 3 6
4 10 1 10 -3 0 -7 -4 -11 -9z"/>
<path d="M2915 1120 c-3 -5 -1 -10 4 -10 6 0 11 5 11 10 0 6 -2 10 -4 10 -3 0
-8 -4 -11 -10z"/>
<path d="M2970 1120 c0 -5 5 -10 11 -10 5 0 7 5 4 10 -3 6 -8 10 -11 10 -2 0
-4 -4 -4 -10z"/>
<path d="M3010 1126 c0 -2 7 -7 16 -10 8 -3 12 -2 9 4 -6 10 -25 14 -25 6z"/>
<path d="M3053 1115 c0 -8 4 -12 9 -9 4 3 8 9 8 15 0 5 -4 9 -8 9 -5 0 -9 -7
-9 -15z"/>
<path d="M2254 1108 c-4 -7 -3 -8 5 -4 6 4 20 2 29 -6 15 -12 16 -11 3 5 -16
20 -27 22 -37 5z"/>
<path d="M2630 1116 c0 -2 8 -10 18 -17 15 -13 16 -12 3 4 -13 16 -21 21 -21
13z"/>
<path d="M2433 1087 c-1 -11 -1 -18 0 -16 2 2 8 11 15 20 9 12 9 16 -1 16 -7
0 -14 -9 -14 -20z"/>
<path d="M2478 1103 c7 -3 16 -2 19 1 4 3 -2 6 -13 5 -11 0 -14 -3 -6 -6z"/>
<path d="M2518 1103 c7 -3 16 -2 19 1 4 3 -2 6 -13 5 -11 0 -14 -3 -6 -6z"/>
<path d="M3130 1099 c0 -5 5 -7 10 -4 6 3 10 8 10 11 0 2 -4 4 -10 4 -5 0 -10
-5 -10 -11z"/>
<path d="M3175 1100 c3 -5 8 -10 11 -10 2 0 4 5 4 10 0 6 -5 10 -11 10 -5 0
-7 -4 -4 -10z"/>
<path d="M2850 1096 c0 -2 8 -10 18 -17 15 -13 16 -12 3 4 -13 16 -21 21 -21
13z"/>
<path d="M2387 1079 c7 -7 15 -10 18 -7 3 3 -2 9 -12 12 -14 6 -15 5 -6 -5z"/>
<path d="M2466 1082 c-3 -5 1 -9 9 -9 8 0 12 4 9 9 -3 4 -7 8 -9 8 -2 0 -6 -4
-9 -8z"/>
<path d="M3219 1073 c-13 -16 -12 -17 4 -4 16 13 21 21 13 21 -2 0 -10 -8 -17
-17z"/>
<path d="M2895 1071 c-3 -5 -2 -12 3 -15 5 -3 9 1 9 9 0 17 -3 19 -12 6z"/>
<path d="M2935 1071 c-3 -5 -2 -12 3 -15 5 -3 9 1 9 9 0 17 -3 19 -12 6z"/>
<path d="M2010 1059 c0 -5 5 -7 10 -4 6 3 10 8 10 11 0 2 -4 4 -10 4 -5 0 -10
-5 -10 -11z"/>
<path d="M2055 1060 c3 -5 8 -10 11 -10 2 0 4 5 4 10 0 6 -5 10 -11 10 -5 0
-7 -4 -4 -10z"/>
<path d="M2095 1060 c3 -5 8 -10 11 -10 2 0 4 5 4 10 0 6 -5 10 -11 10 -5 0
-7 -4 -4 -10z"/>
<path d="M2135 1060 c3 -5 8 -10 11 -10 2 0 4 5 4 10 0 6 -5 10 -11 10 -5 0
-7 -4 -4 -10z"/>
<path d="M2994 1062 c4 -3 14 -7 22 -8 9 -1 13 0 10 4 -4 3 -14 7 -22 8 -9 1
-13 0 -10 -4z"/>
<path d="M3093 1055 c0 -8 4 -12 9 -9 5 3 6 10 3 15 -9 13 -12 11 -12 -6z"/>
<path d="M2349 1043 c-13 -16 -12 -17 4 -4 16 13 21 21 13 21 -2 0 -10 -8 -17
-17z"/>
<path d="M2515 1049 c-4 -6 -5 -12 -2 -15 2 -3 7 2 10 11 7 17 1 20 -8 4z"/>
<path d="M2829 1043 c-13 -16 -12 -17 4 -4 16 13 21 21 13 21 -2 0 -10 -8 -17
-17z"/>
<path d="M2593 1035 c0 -8 4 -12 9 -9 4 3 8 9 8 15 0 5 -4 9 -8 9 -5 0 -9 -7
-9 -15z"/>
<path d="M2870 1041 c0 -6 4 -13 10 -16 6 -3 7 1 4 9 -7 18 -14 21 -14 7z"/>
</g>
</svg>
